<svg width="100%" viewBox="0 0 680 400" xmlns="http://www.w3.org/2000/svg">
<defs>
  <marker id="arrow" viewBox="0 0 10 10" refX="8" refY="5" markerWidth="6" markerHeight="6" orient="auto-start-reverse">
    <path d="M2 1L8 5L2 9" fill="none" stroke="context-stroke" stroke-width="1.5" stroke-linecap="round" stroke-linejoin="round"/>
  </marker>
</defs>

<rect x="272" y="56" width="240" height="258" rx="9" fill="#009682" stroke="#007A6A" stroke-width="0.5" opacity="0.22"/>
<rect x="261" y="47" width="240" height="258" rx="9" fill="#009682" stroke="#007A6A" stroke-width="0.5" opacity="0.32"/>
<rect x="250" y="38" width="240" height="258" rx="9" fill="#009682" stroke="#007A6A" stroke-width="0.5" opacity="0.45"/>
<rect x="239" y="29" width="240" height="258" rx="9" fill="#009682" stroke="#007A6A" stroke-width="0.5" opacity="0.60"/>

<rect x="228" y="20" width="240" height="258" rx="9" fill="#009682" stroke="#007A6A" stroke-width="1.2"/>

<rect x="228" y="20" width="240" height="28" rx="9" fill="#007A6A"/>
<rect x="228" y="38" width="240" height="10" fill="#007A6A"/>

<rect x="228" y="20" width="42" height="258" rx="9" fill="#007A6A"/>
<rect x="256" y="20" width="14" height="258" fill="#007A6A"/>

<line x1="270" y1="20" x2="270" y2="278" stroke="#005A4E" stroke-width="0.8"/>

<line x1="228" y1="48" x2="468" y2="48" stroke="#005A4E" stroke-width="0.8"/>
<line x1="228" y1="76" x2="468" y2="76" stroke="#007A6A" stroke-width="0.6" opacity="0.7"/>
<line x1="228" y1="104" x2="468" y2="104" stroke="#007A6A" stroke-width="0.6" opacity="0.7"/>
<line x1="228" y1="132" x2="468" y2="132" stroke="#007A6A" stroke-width="0.6" opacity="0.7"/>
<line x1="228" y1="250" x2="468" y2="250" stroke="#007A6A" stroke-width="0.6" opacity="0.7"/>

<line x1="318" y1="20" x2="318" y2="278" stroke="#005A4E" stroke-width="0.7" opacity="0.8"/>
<line x1="366" y1="20" x2="366" y2="278" stroke="#005A4E" stroke-width="0.7" opacity="0.8"/>
<line x1="400" y1="20" x2="400" y2="278" stroke="#005A4E" stroke-width="0.5" stroke-dasharray="3 3" opacity="0.7"/>
<line x1="434" y1="20" x2="434" y2="278" stroke="#005A4E" stroke-width="0.7" opacity="0.8"/>

<text font-size="11" font-family="sans-serif" font-weight="500" x="294" y="34" text-anchor="middle" dominant-baseline="central" fill="#ffffff">s1</text>
<text font-size="11" font-family="sans-serif" font-weight="500" x="342" y="34" text-anchor="middle" dominant-baseline="central" fill="#ffffff">s2</text>
<text font-size="11" font-family="sans-serif" font-weight="500" x="383" y="34" text-anchor="middle" dominant-baseline="central" fill="#E0F5F1">···</text>
<text font-size="11" font-family="sans-serif" font-weight="500" x="451" y="34" text-anchor="middle" dominant-baseline="central" fill="#ffffff">s13</text>

<text font-size="10" font-family="sans-serif" x="249" y="62" text-anchor="middle" dominant-baseline="central" fill="#ffffff">t=0</text>
<text font-size="10" font-family="sans-serif" x="249" y="90" text-anchor="middle" dominant-baseline="central" fill="#ffffff">t=1</text>
<text font-size="10" font-family="sans-serif" x="249" y="118" text-anchor="middle" dominant-baseline="central" fill="#ffffff">t=2</text>

<text font-size="13" font-family="sans-serif" x="249" y="168" text-anchor="middle" dominant-baseline="central" fill="#ffffff">⋮</text>
<text font-size="13" font-family="sans-serif" x="249" y="187" text-anchor="middle" dominant-baseline="central" fill="#ffffff">⋮</text>
<text font-size="13" font-family="sans-serif" x="249" y="206" text-anchor="middle" dominant-baseline="central" fill="#ffffff">⋮</text>

<text font-size="10" font-family="sans-serif" x="249" y="264" text-anchor="middle" dominant-baseline="central" fill="#ffffff">t=69</text>

<line x1="480" y1="278" x2="514" y2="312" stroke="#4664AA" stroke-width="1.5" marker-end="url(#arrow)"/>
<text font-size="10" font-family="sans-serif" font-style="italic" x="558" y="322" text-anchor="middle" dominant-baseline="central" fill="#4664AA">N engines</text>

<rect x="44" y="84" width="136" height="44" rx="6" fill="#E8EDF5" stroke="#4664AA" stroke-width="0.8"/>
<text font-size="11" font-family="sans-serif" font-weight="500" x="112" y="102" text-anchor="middle" dominant-baseline="central" fill="#2A3D6B">13 sensors</text>
<text font-size="10" font-family="sans-serif" x="112" y="119" text-anchor="middle" dominant-baseline="central" fill="#4664AA">channel dimension</text>
<line x1="180" y1="106" x2="222" y2="106" stroke="#4664AA" stroke-width="1" marker-end="url(#arrow)"/>

<rect x="44" y="180" width="136" height="44" rx="6" fill="#E8EDF5" stroke="#4664AA" stroke-width="0.8"/>
<text font-size="11" font-family="sans-serif" font-weight="500" x="112" y="198" text-anchor="middle" dominant-baseline="central" fill="#2A3D6B">70 time steps</text>
<text font-size="10" font-family="sans-serif" x="112" y="215" text-anchor="middle" dominant-baseline="central" fill="#4664AA">sequence length</text>
<line x1="180" y1="200" x2="228" y2="200" stroke="#4664AA" stroke-width="1" marker-end="url(#arrow)"/>

</svg>
